<?xml version="1.0" encoding="iso-8859-1"?>
<!-- Generator: Adobe Illustrator 19.0.0, SVG Export Plug-In . SVG Version: 6.00 Build 0)  -->
<svg version="1.1" id="Capa_1" xmlns="http://www.w3.org/2000/svg" xmlns:xlink="http://www.w3.org/1999/xlink" x="0px" y="0px"
	 viewBox="0 0 512.256 512.256" style="enable-background:new 0 0 512.256 512.256;" fill="#fff" xml:space="preserve">
<g>
	<g>
		<path d="M256,0.128c-141.152,0-256,114.848-256,256s114.848,256,256,256s256-114.848,256-256S397.152,0.128,256,0.128z
			 M256,480.128c-123.52,0-224-100.512-224-224c0-123.52,100.48-224,224-224c123.488,0,224,100.48,224,224
			C480,379.616,379.488,480.128,256,480.128z"/>
	</g>
</g>
<g>
	<g>
		<path d="M363.424,453.728c-62.976,0-110.016-12.864-144.416-22.272c-19.84-5.44-35.552-9.728-48.288-9.728
			c-18.464,0-43.904,7.2-59.2,23.36c-6.048,6.432-5.792,16.576,0.64,22.624c6.432,6.048,16.544,5.76,22.624-0.64
			c7.936-8.384,24.512-13.376,35.968-13.376c8.48,0,23.04,3.968,39.872,8.608c34.112,9.312,85.6,23.392,152.864,23.392
			c8.864,0,15.936-7.136,15.936-15.968C379.424,460.896,372.256,453.728,363.424,453.728z"/>
	</g>
</g>
<g>
	<g>
		<path d="M465.6,392.736c-2.432-8.448-11.168-13.536-19.776-10.976c-0.288,0.064-28.512,7.936-72.416,7.936
			c-40.224,0-89.152-15.456-163.648-51.712c-54.208-26.4-156.48-65.664-195.744-45.376c-7.84,4.064-10.912,13.696-6.88,21.536
			c4.032,7.808,13.6,10.944,21.568,6.88c17.088-9.024,88.384,7.424,167.072,45.696c79.168,38.528,132.288,54.976,177.664,54.976
			c48.768,0,79.936-8.832,81.216-9.184C463.136,410.08,468,401.248,465.6,392.736z"/>
	</g>
</g>
<g>
	<g>
		<path d="M475.904,336.352H437.44c-17.6,0-56.96-8.64-195.04-83.392C124.48,189.088,52.256,176.384,8.096,211.616
			c-6.88,5.536-8,15.584-2.496,22.496c5.536,6.88,15.584,8.064,22.528,2.496c11.648-9.344,47.136-37.76,199.04,44.48
			c142.048,76.928,185.984,87.296,210.272,87.296h38.464c8.832,0,16-7.2,16-16.032C491.904,343.52,484.736,336.352,475.904,336.352z
			"/>
	</g>
</g>
<g>
	<g>
		<path d="M493.856,272.352c-18.144-0.64-114.176-63.264-174.144-113.6C265.984,113.664,156.576,61.248,96,61.248
			c-8.832,0-16,7.168-16,16c0,8.832,7.168,16,16,16c53.12,0,154.592,49.248,203.168,90.016
			C329.696,208.896,456,304.352,493.856,304.352c8.704,0,15.584-7.008,15.712-15.712
			C509.696,279.872,502.56,272.672,493.856,272.352z"/>
	</g>
</g>
<g>
	<g>
		<path d="M496.544,229.728c-6.24-1.6-22.848-21.888-37.504-39.776c-17.664-21.6-41.92-51.2-74.304-83.584
			c-73.664-73.696-145.184-99.84-184-99.84c-8.832,0-16,7.168-16,16c0,8.832,7.168,16,16,16c26.336,0,89.984,19.04,161.376,90.464
			c31.264,31.264,53.952,58.976,72.192,81.248c27.2,33.184,42.176,51.456,61.696,51.456c8.832,0,16.288-7.136,16.256-15.968
			C512.256,236.864,505.376,229.728,496.544,229.728z"/>
	</g>
</g>
<g>
</g>
<g>
</g>
<g>
</g>
<g>
</g>
<g>
</g>
<g>
</g>
<g>
</g>
<g>
</g>
<g>
</g>
<g>
</g>
<g>
</g>
<g>
</g>
<g>
</g>
<g>
</g>
<g>
</g>
</svg>
